# xmcd
#
# Track frame offsets:
#	150
#	24277
#	37078
#	58196
#	75971
#	91056
#	114907
#	142167
#	165338
#	200340
#
# Disc length: 2809 seconds
# Revision: 0
# Processed by: cddbd v1.5.2PL0 Copyright (c) Steve Scherf et al.
# Submitted via: dBpowerAMP V12.0
#
DISCID=740af70a
DTITLE=Katey Brooks - Proof of Life
DYEAR=2010
DGENRE=Folk
TTITLE0=You Will Be Free
TTITLE1=Soft Sleeper
TTITLE2=True Speaker
TTITLE3=No-One But My Best
TTITLE4=Lines
TTITLE5=Hunger
TTITLE6=I Don't Want No Other
TTITLE7=This Old Skin
TTITLE8=Is It Love
TTITLE9=Michael Row The Boat
EXTD=
EXTT0=
EXTT1=
EXTT2=
EXTT3=
EXTT4=
EXTT5=
EXTT6=
EXTT7=
EXTT8=
EXTT9=
PLAYORDER=
